<?xml version="1.0" standalone="no"?><!DOCTYPE svg PUBLIC "-//W3C//DTD SVG 1.1//EN" "http://www.w3.org/Graphics/SVG/1.1/DTD/svg11.dtd"><svg t="1727970220931" class="icon" viewBox="0 0 1024 1024" version="1.1" xmlns="http://www.w3.org/2000/svg" p-id="6507" xmlns:xlink="http://www.w3.org/1999/xlink" width="16" height="16"><path d="M711.378824 1019.783529H262.023529C186.127059 1019.783529 120.470588 933.526588 120.470588 857.871059V199.137882H37.345882C13.854118 196.367059 0 183.958588 0 164.924235c0-19.094588 13.854118-31.503059 37.345882-34.153411h237.929412v-43.971765c0-46.200471 36.141176-84.208941 86.738824-86.738824h299.971764c50.597647 2.529882 87.341176 40.538353 87.341177 86.738824v43.971765h236.724706c21.082353 0 37.948235 13.010824 37.948235 33.731764 0 20.720941-16.865882 33.852235-37.948235 33.852236H897.505882v659.516235c0 75.595294-109.628235 161.912471-186.127058 161.91247zM843.294118 198.354824H175.887059v659.516235c0 34.213647 51.802353 105.893647 86.13647 105.893647h449.355295c37.948235-3.373176 131.915294-73.728 131.915294-105.893647V198.294588zM512 807.634824c20.48 0 37.345882-16.685176 37.345882-37.466353v-398.155295a37.466353 37.466353 0 0 0-37.345882-37.466352c-21.082353 0-37.948235 16.685176-37.948235 37.466352v398.155295c0 20.781176 16.865882 37.466353 37.948235 37.466353z m-175.284706 0c20.48 0 37.345882-16.685176 37.345882-37.466353v-398.155295a37.466353 37.466353 0 0 0-37.345882-37.466352c-21.082353 0-37.948235 16.685176-37.948235 37.466352v398.155295c1.204706 20.781176 18.070588 37.466353 37.948235 37.466353z m349.967059 0c21.082353 0 37.948235-16.685176 37.948235-37.466353v-398.155295a37.586824 37.586824 0 0 0-37.948235-37.466352c-20.48 0-37.345882 16.685176-37.345882 37.466352v398.155295c0 20.781176 16.865882 37.466353 37.345882 37.466353z m-0.602353-675.418353v-45.417412c0-15.420235-4.216471-28.672-24.094118-28.672H362.014118c-18.672941 0-22.287059 9.758118-22.287059 28.672v45.417412h346.352941z" fill="#ffffff" p-id="6508"></path></svg>