<?xml version="1.0" standalone="no"?><!DOCTYPE svg PUBLIC "-//W3C//DTD SVG 1.1//EN" "http://www.w3.org/Graphics/SVG/1.1/DTD/svg11.dtd"><svg t="1728032920306" class="icon" viewBox="0 0 1024 1024" version="1.1" xmlns="http://www.w3.org/2000/svg" p-id="8482" xmlns:xlink="http://www.w3.org/1999/xlink" width="14" height="14"><path d="M428.18 97.76c22.9 0 41.47 18.57 41.47 41.47V305.1c0 22.9-18.56 41.47-41.47 41.47h-82.94v82.94h207.34v-41.47c0-22.9 18.57-41.47 41.47-41.47h248.81c22.9 0 41.47 18.56 41.47 41.47v165.87c0 22.9-18.56 41.47-41.47 41.47H594.05c-22.9 0-41.47-18.57-41.47-41.47v-41.47H345.24v248.81h207.34v-41.47c0-22.9 18.57-41.47 41.47-41.47h248.81c22.9 0 41.47 18.56 41.47 41.47v165.88c0 22.9-18.56 41.47-41.47 41.47H594.05c-22.9 0-41.47-18.57-41.47-41.47v-41.47H303.77c-22.9 0-41.47-18.56-41.47-41.47V346.57h-82.93c-22.9 0-41.47-18.56-41.47-41.47V139.23c0-22.9 18.56-41.47 41.47-41.47h248.81z m373.21 663.49H635.52v82.94h165.87v-82.94z m0-331.74H635.52v82.93h165.87v-82.93zM386.71 180.7H220.83v82.94h165.88V180.7z m0 0" p-id="8483" fill="#2c2c2c"></path></svg>