<?xml version="1.0" standalone="no"?><!DOCTYPE svg PUBLIC "-//W3C//DTD SVG 1.1//EN" "http://www.w3.org/Graphics/SVG/1.1/DTD/svg11.dtd"><svg t="1727970285403" class="icon" viewBox="0 0 1024 1024" version="1.1" xmlns="http://www.w3.org/2000/svg" p-id="9592" xmlns:xlink="http://www.w3.org/1999/xlink" width="16" height="16"><path d="M149.333333 853.333333h-1.024a64 64 0 0 1-11.733333-1.237333l-2.645333-0.597333a62.805333 62.805333 0 0 1-13.909334-5.248l-3.072-1.706667a64 64 0 0 1-12.8-9.984 64 64 0 0 1-13.696-20.352 63.573333 63.573333 0 0 1-4.736-18.816q-0.298667-3.072-0.298666-6.144V234.666667a64 64 0 0 1 5.034666-24.917334 64 64 0 0 1 13.696-20.352 63.744 63.744 0 0 1 20.309334-13.696A63.445333 63.445333 0 0 1 149.333333 170.666667h276.992a63.744 63.744 0 0 1 19.072 2.901333 63.744 63.744 0 0 1 17.066667 8.234667 64 64 0 0 1 13.866667 12.8 64 64 0 0 1 9.642666 16.725333l42.368 108.629333h346.581334a64.597333 64.597333 0 0 1 15.402666 1.834667 63.104 63.104 0 0 1 13.909334 5.248 64 64 0 0 1 12.074666 8.149333 64.938667 64.938667 0 0 1 9.856 10.538667 64.768 64.768 0 0 1 7.296 12.501333 64 64 0 0 1 4.266667 13.909334 63.018667 63.018667 0 0 1 1.024 14.890666 65.237333 65.237333 0 0 1-2.645333 15.36l-121.472 405.333334a64 64 0 0 1-9.002667 18.56 64 64 0 0 1-14.037333 14.421333 64 64 0 0 1-17.834667 9.344 63.744 63.744 0 0 1-20.352 3.328z m604.416-60.288l126.634667-412.8H269.226667l-125.525334 412.8h610.133334zM145.621333 578.944l64-213.333333a63.530667 63.530667 0 0 1 9.002667-18.56 64 64 0 0 1 14.037333-14.421334 63.744 63.744 0 0 1 17.834667-9.344 63.701333 63.701333 0 0 1 20.352-3.328h195.669333l-33.749333-89.088H145.664z m174.378667 167.68V686.933333h384v59.733334z" p-id="9593" fill="#2c2c2c"></path></svg>